<svg width="20" height="20" viewBox="0 0 20 20" fill="none" xmlns="http://www.w3.org/2000/svg">
<path d="M10 1.66663C12.2102 1.66663 14.3298 2.5446 15.8926 4.1074C17.4554 5.67021 18.3334 7.78982 18.3334 9.99996C18.3334 12.2101 17.4554 14.3297 15.8926 15.8925C14.3298 17.4553 12.2102 18.3333 10 18.3333C7.78988 18.3333 5.67027 17.4553 4.10746 15.8925C2.54466 14.3297 1.66669 12.2101 1.66669 9.99996C1.66669 7.78982 2.54466 5.67021 4.10746 4.1074C5.67027 2.5446 7.78988 1.66663 10 1.66663ZM12.6834 7.47496L8.95835 11.2L7.31669 9.55829C7.19821 9.44789 7.0415 9.38779 6.87959 9.39065C6.71767 9.3935 6.56318 9.4591 6.44867 9.57361C6.33416 9.68812 6.26857 9.84261 6.26571 10.0045C6.26285 10.1664 6.32295 10.3231 6.43335 10.4416L8.51669 12.525C8.76669 12.775 9.15835 12.775 9.40002 12.525L13.5667 8.35829C13.6281 8.30107 13.6773 8.23207 13.7115 8.15541C13.7457 8.07874 13.764 7.99598 13.7655 7.91206C13.767 7.82814 13.7516 7.74478 13.7201 7.66696C13.6887 7.58914 13.6419 7.51844 13.5826 7.45909C13.5232 7.39975 13.4525 7.35296 13.3747 7.32152C13.2969 7.29009 13.2135 7.27465 13.1296 7.27613C13.0457 7.27761 12.9629 7.29598 12.8862 7.33014C12.8096 7.3643 12.7406 7.41355 12.6834 7.47496Z" fill="#00BE8D"/>
</svg>
