<svg width="24" height="24" viewBox="0 0 24 24" fill="none" xmlns="http://www.w3.org/2000/svg">
<path d="M4.21934 8.47C4.51934 8.17 4.98934 8.17 5.27934 8.47L11.9993 15.19L18.7193 8.47C18.788 8.39631 18.8708 8.33721 18.9628 8.29622C19.0548 8.25523 19.1541 8.23319 19.2548 8.23141C19.3555 8.22963 19.4555 8.24816 19.5489 8.28588C19.6423 8.3236 19.7272 8.37974 19.7984 8.45096C19.8696 8.52218 19.9257 8.60702 19.9635 8.7004C20.0012 8.79379 20.0197 8.89382 20.0179 8.99452C20.0162 9.09523 19.9941 9.19454 19.9531 9.28654C19.9121 9.37854 19.853 9.46134 19.7793 9.53L12.5293 16.78C12.2293 17.08 11.7593 17.08 11.4693 16.78L4.21934 9.53C4.07889 9.38938 4 9.19875 4 9C4 8.80125 4.07889 8.61063 4.21934 8.47Z" fill="#00123D"/>
</svg>
