<svg width="30" height="30" viewBox="0 0 30 30" fill="none" xmlns="http://www.w3.org/2000/svg">
<path d="M23.8851 16.06L15.9403 7.41536C15.8173 7.27691 15.6738 7.17307 15.5098 7.10384C15.3516 7.03461 15.1816 7 15 7C14.8184 7 14.6455 7.03461 14.4815 7.10384C14.3233 7.17307 14.1827 7.27691 14.0596 7.41536L6.11484 16.06C6.03281 16.1523 5.99473 16.259 6.00059 16.3802C6.00645 16.5013 6.05624 16.6023 6.14999 16.6831C6.191 16.7235 6.23787 16.7552 6.29061 16.7782C6.34333 16.7955 6.39607 16.8042 6.4488 16.8042C6.51325 16.8042 6.57477 16.7927 6.63335 16.7696C6.69195 16.7408 6.74175 16.7033 6.78276 16.6571L8.69865 14.5717V21.6761C8.69865 22.0395 8.83048 22.351 9.09413 22.6106C9.35779 22.8701 9.67711 23 10.0521 23H19.9479C20.3228 23 20.6422 22.8701 20.9058 22.6106C21.1695 22.351 21.3014 22.0395 21.3014 21.6761V14.5717L23.2173 16.6571C23.2993 16.7436 23.4017 16.7927 23.5248 16.8042C23.6478 16.81 23.7562 16.7696 23.85 16.6831C23.9437 16.6023 23.9935 16.5013 23.9994 16.3802C24.0053 16.259 23.9672 16.1523 23.8851 16.06ZM16.8017 22.1173H13.1984V18.1281C13.1984 18.007 13.2423 17.9032 13.3302 17.8166C13.4181 17.7301 13.5235 17.6868 13.6466 17.6868H16.3534C16.4765 17.6868 16.5819 17.7301 16.6698 17.8166C16.7577 17.9032 16.8017 18.007 16.8017 18.1281V22.1173ZM20.3961 21.6761C20.3961 21.7972 20.3521 21.901 20.2643 21.9876C20.1765 22.0741 20.071 22.1173 19.9479 22.1173H17.698V18.1281C17.698 17.7647 17.5662 17.4532 17.3025 17.1936C17.039 16.9341 16.7226 16.8042 16.3534 16.8042H13.6466C13.2774 16.8042 12.9611 16.9341 12.6974 17.1936C12.4338 17.4532 12.3019 17.7647 12.3019 18.1281V22.1173H10.0521C9.92904 22.1173 9.82358 22.0741 9.73569 21.9876C9.64781 21.901 9.60387 21.7972 9.60387 21.6761V13.5938L14.7276 8.00379C14.7686 7.9634 14.8096 7.93456 14.8506 7.91725C14.8975 7.89418 14.9473 7.88264 15 7.88264C15.0527 7.88264 15.0996 7.89418 15.1406 7.91725C15.1875 7.93456 15.2314 7.9634 15.2725 8.00379L20.3961 13.5938V21.6761Z" fill="white"/>
<rect x="0.5" y="0.5" width="29" height="29" rx="14.5" stroke="white"/>
</svg>
