<svg width="20" height="20" viewBox="0 0 20 20" fill="none" xmlns="http://www.w3.org/2000/svg">
<path d="M3.6667 3.79171L3.72503 3.72505C3.83136 3.6187 3.97247 3.55425 4.12248 3.54354C4.27249 3.53282 4.42133 3.57656 4.5417 3.66671L4.60836 3.72505L10 9.11671L15.3917 3.72505C15.4489 3.66364 15.5179 3.61439 15.5946 3.58023C15.6712 3.54607 15.754 3.5277 15.8379 3.52622C15.9218 3.52474 16.0052 3.54018 16.083 3.57161C16.1609 3.60305 16.2315 3.64983 16.2909 3.70918C16.3502 3.76853 16.397 3.83922 16.4285 3.91705C16.4599 3.99487 16.4753 4.07823 16.4739 4.16215C16.4724 4.24607 16.454 4.32883 16.4198 4.40549C16.3857 4.48216 16.3364 4.55116 16.275 4.60838L10.8834 10L16.275 15.3917C16.5 15.6167 16.525 15.9584 16.3334 16.2084L16.275 16.275C16.1687 16.3814 16.0276 16.4458 15.8776 16.4566C15.7276 16.4673 15.5787 16.4235 15.4584 16.3334L15.3917 16.275L10 10.8834L4.60836 16.275C4.48988 16.3854 4.33318 16.4455 4.17126 16.4427C4.00934 16.4398 3.85486 16.3742 3.74034 16.2597C3.62583 16.1452 3.56024 15.9907 3.55738 15.8288C3.55453 15.6669 3.61463 15.5102 3.72503 15.3917L9.1167 10L3.72503 4.60838C3.61868 4.50205 3.55424 4.36093 3.54352 4.21093C3.53281 4.06092 3.57654 3.91208 3.6667 3.79171Z" fill="#99A0B1"/>
</svg>
