<svg width="20" height="20" viewBox="0 0 20 20" fill="none" xmlns="http://www.w3.org/2000/svg">
<path d="M8.35833 3.04997C8.52031 2.75639 8.75806 2.51163 9.0468 2.34118C9.33553 2.17072 9.6647 2.08081 9.99999 2.08081C10.3353 2.08081 10.6645 2.17072 10.9532 2.34118C11.2419 2.51163 11.4797 2.75639 11.6417 3.04997L18.0917 14.7166C18.2498 15.0022 18.3306 15.3241 18.3262 15.6504C18.3218 15.9768 18.2322 16.2964 18.0664 16.5775C17.9006 16.8587 17.6642 17.0917 17.3807 17.2534C17.0972 17.4152 16.7764 17.5002 16.45 17.5H3.54166C3.21525 17.5002 2.89444 17.4152 2.61094 17.2534C2.32745 17.0917 2.0911 16.8587 1.92528 16.5775C1.75945 16.2964 1.66989 15.9768 1.66546 15.6504C1.66102 15.3241 1.74187 15.0022 1.89999 14.7166L8.35833 3.04997ZM10.8333 14.1666C10.8333 13.9456 10.7455 13.7337 10.5892 13.5774C10.433 13.4211 10.221 13.3333 9.99999 13.3333C9.77898 13.3333 9.56702 13.4211 9.41074 13.5774C9.25446 13.7337 9.16666 13.9456 9.16666 14.1666C9.16666 14.3876 9.25446 14.5996 9.41074 14.7559C9.56702 14.9122 9.77898 15 9.99999 15C10.221 15 10.433 14.9122 10.5892 14.7559C10.7455 14.5996 10.8333 14.3876 10.8333 14.1666ZM10.6167 7.62497C10.6112 7.54289 10.5896 7.4627 10.5531 7.38896C10.5167 7.31523 10.466 7.2494 10.4041 7.19523C10.2791 7.08583 10.1158 7.03058 9.94999 7.04163C9.78423 7.05268 9.62965 7.12913 9.52025 7.25415C9.41086 7.37918 9.35561 7.54254 9.36666 7.7083V11.4583L9.38333 11.5416C9.4083 11.6952 9.48965 11.8339 9.61147 11.9307C9.7333 12.0275 9.88684 12.0753 10.0421 12.0649C10.1973 12.0545 10.3431 11.9866 10.4509 11.8744C10.5587 11.7622 10.6208 11.6138 10.625 11.4583V7.7083L10.6167 7.62497Z" fill="#DC2626"/>
</svg>
